<svg width="102" height="53" viewBox="0 0 102 53" fill="none" xmlns="http://www.w3.org/2000/svg">
<g id="Group 1321317789">
<g id="Group 1321317785">
<circle id="Ellipse 62" cx="1.89224" cy="1.89224" r="1.89224" transform="matrix(1 0 0 -1 17.6748 48.9629)" fill="#9EC3D2" fill-opacity="0.35"/>
<circle id="Ellipse 63" cx="1.89224" cy="1.89224" r="1.89224" transform="matrix(1 0 0 -1 52.415 48.9629)" fill="#9EC3D2" fill-opacity="0.35"/>
<circle id="Ellipse 64" cx="1.89224" cy="1.89224" r="1.89224" transform="matrix(1 0 0 -1 35.0444 48.9629)" fill="#9EC3D2" fill-opacity="0.35"/>
<circle id="Ellipse 65" cx="1.89224" cy="1.89224" r="1.89224" transform="matrix(1 0 0 -1 69.7847 48.9629)" fill="#9EC3D2" fill-opacity="0.35"/>
<circle id="Ellipse 66" cx="1.89224" cy="1.89224" r="1.89224" transform="matrix(1 0 0 -1 26.3599 48.9629)" fill="#9EC3D2" fill-opacity="0.35"/>
<circle id="Ellipse 67" cx="1.89224" cy="1.89224" r="1.89224" transform="matrix(1 0 0 -1 61.0996 48.9629)" fill="#9EC3D2" fill-opacity="0.35"/>
<circle id="Ellipse 68" cx="1.89224" cy="1.89224" r="1.89224" transform="matrix(1 0 0 -1 43.7295 48.9629)" fill="#9EC3D2" fill-opacity="0.35"/>
<circle id="Ellipse 69" cx="1.89224" cy="1.89224" r="1.89224" transform="matrix(1 0 0 -1 78.4697 48.9629)" fill="#9EC3D2" fill-opacity="0.35"/>
<circle id="Ellipse 70" cx="1.89224" cy="1.89224" r="1.89224" transform="matrix(1 0 0 -1 17.6748 23.4175)" fill="#9EC3D2" fill-opacity="0.35"/>
<circle id="Ellipse 71" cx="1.89224" cy="1.89224" r="1.89224" transform="matrix(1 0 0 -1 52.415 23.4175)" fill="#9EC3D2" fill-opacity="0.35"/>
<circle id="Ellipse 72" cx="1.89224" cy="1.89224" r="1.89224" transform="matrix(1 0 0 -1 35.0444 23.4175)" fill="#9EC3D2" fill-opacity="0.35"/>
<circle id="Ellipse 73" cx="1.89224" cy="1.89224" r="1.89224" transform="matrix(1 0 0 -1 69.7847 23.4175)" fill="#9EC3D2" fill-opacity="0.35"/>
<circle id="Ellipse 74" cx="1.89224" cy="1.89224" r="1.89224" transform="matrix(1 0 0 -1 26.3599 23.4175)" fill="#9EC3D2" fill-opacity="0.35"/>
<circle id="Ellipse 75" cx="1.89224" cy="1.89224" r="1.89224" transform="matrix(1 0 0 -1 61.0996 23.4175)" fill="#9EC3D2" fill-opacity="0.35"/>
<circle id="Ellipse 76" cx="1.89224" cy="1.89224" r="1.89224" transform="matrix(1 0 0 -1 43.7295 23.4175)" fill="#9EC3D2" fill-opacity="0.35"/>
<circle id="Ellipse 78" cx="1.89224" cy="1.89224" r="1.89224" transform="matrix(1 0 0 -1 17.6748 40.4478)" fill="#9EC3D2" fill-opacity="0.35"/>
<circle id="Ellipse 79" cx="1.89224" cy="1.89224" r="1.89224" transform="matrix(1 0 0 -1 52.415 40.4478)" fill="#9EC3D2" fill-opacity="0.35"/>
<circle id="Ellipse 80" cx="1.89224" cy="1.89224" r="1.89224" transform="matrix(1 0 0 -1 35.0444 40.4478)" fill="#9EC3D2" fill-opacity="0.35"/>
<circle id="Ellipse 81" cx="1.89224" cy="1.89224" r="1.89224" transform="matrix(1 0 0 -1 69.7847 40.4478)" fill="#9EC3D2" fill-opacity="0.35"/>
<circle id="Ellipse 82" cx="1.89224" cy="1.89224" r="1.89224" transform="matrix(1 0 0 -1 26.3599 40.4478)" fill="#9EC3D2" fill-opacity="0.35"/>
<circle id="Ellipse 83" cx="1.89224" cy="1.89224" r="1.89224" transform="matrix(1 0 0 -1 61.0996 40.4478)" fill="#9EC3D2" fill-opacity="0.35"/>
<circle id="Ellipse 84" cx="1.89224" cy="1.89224" r="1.89224" transform="matrix(1 0 0 -1 43.7295 40.4478)" fill="#9EC3D2" fill-opacity="0.35"/>
<circle id="Ellipse 85" cx="1.89224" cy="1.89224" r="1.89224" transform="matrix(1 0 0 -1 78.4697 40.4478)" fill="#9EC3D2" fill-opacity="0.35"/>
<circle id="Ellipse 86" cx="1.89224" cy="1.89224" r="1.89224" transform="matrix(1 0 0 -1 17.6748 14.9023)" fill="#9EC3D2" fill-opacity="0.35"/>
<circle id="Ellipse 87" cx="1.89224" cy="1.89224" r="1.89224" transform="matrix(1 0 0 -1 52.415 14.9023)" fill="#9EC3D2" fill-opacity="0.35"/>
<circle id="Ellipse 88" cx="1.89224" cy="1.89224" r="1.89224" transform="matrix(1 0 0 -1 35.0444 14.9023)" fill="#9EC3D2" fill-opacity="0.35"/>
<circle id="Ellipse 90" cx="1.89224" cy="1.89224" r="1.89224" transform="matrix(1 0 0 -1 26.3599 14.9023)" fill="#9EC3D2" fill-opacity="0.35"/>
<circle id="Ellipse 92" cx="1.89224" cy="1.89224" r="1.89224" transform="matrix(1 0 0 -1 43.7295 14.9023)" fill="#9EC3D2" fill-opacity="0.35"/>
<circle id="Ellipse 94" cx="1.89224" cy="1.89224" r="1.89224" transform="matrix(1 0 0 -1 17.6748 31.9326)" fill="#9EC3D2" fill-opacity="0.35"/>
<circle id="Ellipse 95" cx="1.89224" cy="1.89224" r="1.89224" transform="matrix(1 0 0 -1 52.415 31.9326)" fill="#9EC3D2" fill-opacity="0.35"/>
<circle id="Ellipse 96" cx="1.89224" cy="1.89224" r="1.89224" transform="matrix(1 0 0 -1 35.0444 31.9326)" fill="#9EC3D2" fill-opacity="0.35"/>
<circle id="Ellipse 97" cx="1.89224" cy="1.89224" r="1.89224" transform="matrix(1 0 0 -1 69.7847 31.9326)" fill="#9EC3D2" fill-opacity="0.35"/>
<circle id="Ellipse 98" cx="1.89224" cy="1.89224" r="1.89224" transform="matrix(1 0 0 -1 26.3599 31.9326)" fill="#9EC3D2" fill-opacity="0.35"/>
<circle id="Ellipse 99" cx="1.89224" cy="1.89224" r="1.89224" transform="matrix(1 0 0 -1 61.0996 31.9326)" fill="#9EC3D2" fill-opacity="0.35"/>
<circle id="Ellipse 100" cx="1.89224" cy="1.89224" r="1.89224" transform="matrix(1 0 0 -1 43.7295 31.9326)" fill="#9EC3D2" fill-opacity="0.35"/>
<circle id="Ellipse 101" cx="1.89224" cy="1.89224" r="1.89224" transform="matrix(1 0 0 -1 78.4697 31.9326)" fill="#9EC3D2" fill-opacity="0.35"/>
<circle id="Ellipse 102" cx="1.89224" cy="1.89224" r="1.89224" transform="matrix(1 0 0 -1 17.6748 6.38745)" fill="#9EC3D2" fill-opacity="0.35"/>
<circle id="Ellipse 104" cx="1.89224" cy="1.89224" r="1.89224" transform="matrix(1 0 0 -1 35.0444 6.38745)" fill="#9EC3D2" fill-opacity="0.35"/>
<circle id="Ellipse 106" cx="1.89224" cy="1.89224" r="1.89224" transform="matrix(1 0 0 -1 26.3599 6.38745)" fill="#9EC3D2" fill-opacity="0.35"/>
<circle id="Ellipse 108" cx="1.89224" cy="1.89224" r="1.89224" transform="matrix(1 0 0 -1 43.7295 6.38745)" fill="#9EC3D2" fill-opacity="0.35"/>
</g>
<rect id="Rectangle 37" width="43.4004" height="33.7546" rx="4" transform="matrix(1 0 0 -1 58.5996 33.8423)" fill="#9FC4D2" fill-opacity="0.5"/>
<rect id="Rectangle 36" width="33.0444" height="19.7645" rx="4" transform="matrix(1 0 0 -1 0 52.9121)" fill="#9FC4D2" fill-opacity="0.5"/>
<path id="Vector 2" d="M41.7329 22.4792H40.7329H41.7329ZM77.9609 17.2908L67.9609 11.5173V23.0643L77.9609 17.2908ZM18.4255 42.5413C18.4255 45.4868 20.8133 47.8746 23.7588 47.8746C26.7043 47.8746 29.0921 45.4868 29.0921 42.5413C29.0921 39.5958 26.7043 37.208 23.7588 37.208C20.8133 37.208 18.4255 39.5958 18.4255 42.5413ZM34.0628 43.5413C36.6373 43.5413 38.852 42.9665 40.4189 41.4873C41.997 39.9975 42.7329 37.7672 42.7329 34.8714H40.7329C40.7329 37.4522 40.0799 39.0569 39.046 40.0329C38.001 41.0195 36.3807 41.5413 34.0628 41.5413V43.5413ZM42.7329 34.8714C42.7329 27.5269 42.7329 24.891 42.7329 22.4792H40.7329C40.7329 24.891 40.7329 27.5269 40.7329 34.8714H42.7329ZM42.7329 22.4792C42.7329 20.5231 44.3639 18.2908 46.9213 18.2908V16.2908C43.0655 16.2908 40.7329 19.6228 40.7329 22.4792H42.7329ZM46.9213 18.2908C46.9278 18.2908 46.9344 18.2908 46.941 18.2908C46.9476 18.2908 46.9542 18.2908 46.9609 18.2908C46.9675 18.2908 46.9742 18.2908 46.9809 18.2908C46.9876 18.2908 46.9944 18.2908 47.0011 18.2908C47.0079 18.2908 47.0147 18.2908 47.0215 18.2908C47.0283 18.2908 47.0351 18.2908 47.042 18.2908C47.0489 18.2908 47.0558 18.2908 47.0627 18.2908C47.0696 18.2908 47.0766 18.2908 47.0835 18.2908C47.0905 18.2908 47.0975 18.2908 47.1045 18.2908C47.1116 18.2908 47.1186 18.2908 47.1257 18.2908C47.1328 18.2908 47.1399 18.2908 47.147 18.2908C47.1542 18.2908 47.1613 18.2908 47.1685 18.2908C47.1757 18.2908 47.1829 18.2908 47.1901 18.2908C47.1974 18.2908 47.2046 18.2908 47.2119 18.2908C47.2192 18.2908 47.2265 18.2908 47.2339 18.2908C47.2412 18.2908 47.2486 18.2908 47.256 18.2908C47.2634 18.2908 47.2708 18.2908 47.2783 18.2908C47.2857 18.2908 47.2932 18.2908 47.3007 18.2908C47.3082 18.2908 47.3157 18.2908 47.3232 18.2908C47.3308 18.2908 47.3384 18.2908 47.346 18.2908C47.3536 18.2908 47.3612 18.2908 47.3688 18.2908C47.3765 18.2908 47.3842 18.2908 47.3919 18.2908C47.3996 18.2908 47.4073 18.2908 47.4151 18.2908C47.4228 18.2908 47.4306 18.2908 47.4384 18.2908C47.4462 18.2908 47.454 18.2908 47.4619 18.2908C47.4698 18.2908 47.4776 18.2908 47.4855 18.2908C47.4934 18.2908 47.5014 18.2908 47.5093 18.2908C47.5173 18.2908 47.5253 18.2908 47.5333 18.2908C47.5413 18.2908 47.5493 18.2908 47.5574 18.2908C47.5654 18.2908 47.5735 18.2908 47.5816 18.2908C47.5897 18.2908 47.5979 18.2908 47.606 18.2908C47.6142 18.2908 47.6224 18.2908 47.6306 18.2908C47.6388 18.2908 47.647 18.2908 47.6553 18.2908C47.6635 18.2908 47.6718 18.2908 47.6801 18.2908C47.6884 18.2908 47.6967 18.2908 47.7051 18.2908C47.7135 18.2908 47.7218 18.2908 47.7302 18.2908C47.7386 18.2908 47.7471 18.2908 47.7555 18.2908C47.764 18.2908 47.7725 18.2908 47.781 18.2908C47.7895 18.2908 47.798 18.2908 47.8065 18.2908C47.8151 18.2908 47.8237 18.2908 47.8323 18.2908C47.8409 18.2908 47.8495 18.2908 47.8581 18.2908C47.8668 18.2908 47.8755 18.2908 47.8841 18.2908C47.8928 18.2908 47.9016 18.2908 47.9103 18.2908C47.9191 18.2908 47.9278 18.2908 47.9366 18.2908C47.9454 18.2908 47.9542 18.2908 47.9631 18.2908C47.9719 18.2908 47.9808 18.2908 47.9897 18.2908C47.9985 18.2908 48.0075 18.2908 48.0164 18.2908C48.0253 18.2908 48.0343 18.2908 48.0433 18.2908C48.0523 18.2908 48.0613 18.2908 48.0703 18.2908C48.0793 18.2908 48.0884 18.2908 48.0975 18.2908C48.1065 18.2908 48.1156 18.2908 48.1248 18.2908C48.1339 18.2908 48.143 18.2908 48.1522 18.2908C48.1614 18.2908 48.1706 18.2908 48.1798 18.2908C48.189 18.2908 48.1983 18.2908 48.2075 18.2908C48.2168 18.2908 48.2261 18.2908 48.2354 18.2908C48.2447 18.2908 48.254 18.2908 48.2634 18.2908C48.2728 18.2908 48.2821 18.2908 48.2915 18.2908C48.3009 18.2908 48.3104 18.2908 48.3198 18.2908C48.3293 18.2908 48.3388 18.2908 48.3482 18.2908C48.3577 18.2908 48.3673 18.2908 48.3768 18.2908C48.3864 18.2908 48.3959 18.2908 48.4055 18.2908C48.4151 18.2908 48.4247 18.2908 48.4343 18.2908C48.444 18.2908 48.4536 18.2908 48.4633 18.2908C48.473 18.2908 48.4827 18.2908 48.4924 18.2908C48.5021 18.2908 48.5119 18.2908 48.5217 18.2908C48.5314 18.2908 48.5412 18.2908 48.551 18.2908C48.5609 18.2908 48.5707 18.2908 48.5805 18.2908C48.5904 18.2908 48.6003 18.2908 48.6102 18.2908C48.6201 18.2908 48.63 18.2908 48.64 18.2908C48.6499 18.2908 48.6599 18.2908 48.6699 18.2908C48.6799 18.2908 48.6899 18.2908 48.6999 18.2908C48.71 18.2908 48.72 18.2908 48.7301 18.2908C48.7402 18.2908 48.7503 18.2908 48.7604 18.2908C48.7706 18.2908 48.7807 18.2908 48.7909 18.2908C48.801 18.2908 48.8112 18.2908 48.8215 18.2908C48.8317 18.2908 48.8419 18.2908 48.8522 18.2908C48.8624 18.2908 48.8727 18.2908 48.883 18.2908C48.8933 18.2908 48.9036 18.2908 48.914 18.2908C48.9243 18.2908 48.9347 18.2908 48.9451 18.2908C48.9555 18.2908 48.9659 18.2908 48.9763 18.2908C48.9867 18.2908 48.9972 18.2908 49.0077 18.2908C49.0181 18.2908 49.0286 18.2908 49.0391 18.2908C49.0497 18.2908 49.0602 18.2908 49.0708 18.2908C49.0813 18.2908 49.0919 18.2908 49.1025 18.2908C49.1131 18.2908 49.1237 18.2908 49.1344 18.2908C49.145 18.2908 49.1557 18.2908 49.1664 18.2908C49.177 18.2908 49.1878 18.2908 49.1985 18.2908C49.2092 18.2908 49.22 18.2908 49.2307 18.2908C49.2415 18.2908 49.2523 18.2908 49.2631 18.2908C49.2739 18.2908 49.2847 18.2908 49.2956 18.2908C49.3065 18.2908 49.3173 18.2908 49.3282 18.2908C49.3391 18.2908 49.35 18.2908 49.361 18.2908C49.3719 18.2908 49.3829 18.2908 49.3939 18.2908C49.4048 18.2908 49.4158 18.2908 49.4268 18.2908C49.4379 18.2908 49.4489 18.2908 49.46 18.2908C49.471 18.2908 49.4821 18.2908 49.4932 18.2908C49.5043 18.2908 49.5154 18.2908 49.5266 18.2908C49.5377 18.2908 49.5489 18.2908 49.5601 18.2908C49.5712 18.2908 49.5824 18.2908 49.5937 18.2908C49.6049 18.2908 49.6161 18.2908 49.6274 18.2908C49.6387 18.2908 49.6499 18.2908 49.6613 18.2908C49.6726 18.2908 49.6839 18.2908 49.6952 18.2908C49.7066 18.2908 49.7179 18.2908 49.7293 18.2908C49.7407 18.2908 49.7521 18.2908 49.7635 18.2908C49.7749 18.2908 49.7864 18.2908 49.7979 18.2908C49.8093 18.2908 49.8208 18.2908 49.8323 18.2908C49.8438 18.2908 49.8553 18.2908 49.8669 18.2908C49.8784 18.2908 49.89 18.2908 49.9016 18.2908C49.9131 18.2908 49.9247 18.2908 49.9364 18.2908C49.948 18.2908 49.9596 18.2908 49.9713 18.2908C49.9829 18.2908 49.9946 18.2908 50.0063 18.2908C50.018 18.2908 50.0297 18.2908 50.0415 18.2908C50.0532 18.2908 50.065 18.2908 50.0767 18.2908C50.0885 18.2908 50.1003 18.2908 50.1121 18.2908C50.1239 18.2908 50.1358 18.2908 50.1476 18.2908C50.1595 18.2908 50.1713 18.2908 50.1832 18.2908C50.1951 18.2908 50.207 18.2908 50.2189 18.2908C50.2309 18.2908 50.2428 18.2908 50.2548 18.2908C50.2668 18.2908 50.2787 18.2908 50.2907 18.2908C50.3027 18.2908 50.3148 18.2908 50.3268 18.2908C50.3388 18.2908 50.3509 18.2908 50.363 18.2908C50.3751 18.2908 50.3872 18.2908 50.3993 18.2908C50.4114 18.2908 50.4235 18.2908 50.4357 18.2908C50.4478 18.2908 50.46 18.2908 50.4722 18.2908C50.4844 18.2908 50.4966 18.2908 50.5088 18.2908C50.521 18.2908 50.5333 18.2908 50.5455 18.2908C50.5578 18.2908 50.5701 18.2908 50.5824 18.2908C50.5947 18.2908 50.607 18.2908 50.6193 18.2908C50.6317 18.2908 50.644 18.2908 50.6564 18.2908C50.6688 18.2908 50.6812 18.2908 50.6936 18.2908C50.706 18.2908 50.7184 18.2908 50.7309 18.2908C50.7433 18.2908 50.7558 18.2908 50.7683 18.2908C50.7807 18.2908 50.7932 18.2908 50.8057 18.2908C50.8183 18.2908 50.8308 18.2908 50.8433 18.2908C50.8559 18.2908 50.8685 18.2908 50.8811 18.2908C50.8936 18.2908 50.9063 18.2908 50.9189 18.2908C50.9315 18.2908 50.9441 18.2908 50.9568 18.2908C50.9695 18.2908 50.9821 18.2908 50.9948 18.2908C51.0075 18.2908 51.0202 18.2908 51.033 18.2908C51.0457 18.2908 51.0584 18.2908 51.0712 18.2908C51.084 18.2908 51.0967 18.2908 51.1095 18.2908C51.1223 18.2908 51.1351 18.2908 51.148 18.2908C51.1608 18.2908 51.1737 18.2908 51.1865 18.2908C51.1994 18.2908 51.2123 18.2908 51.2252 18.2908C51.2381 18.2908 51.251 18.2908 51.2639 18.2908C51.2769 18.2908 51.2898 18.2908 51.3028 18.2908C51.3157 18.2908 51.3287 18.2908 51.3417 18.2908C51.3547 18.2908 51.3678 18.2908 51.3808 18.2908C51.3938 18.2908 51.4069 18.2908 51.42 18.2908C51.433 18.2908 51.4461 18.2908 51.4592 18.2908C51.4723 18.2908 51.4854 18.2908 51.4986 18.2908C51.5117 18.2908 51.5249 18.2908 51.538 18.2908C51.5512 18.2908 51.5644 18.2908 51.5776 18.2908C51.5908 18.2908 51.604 18.2908 51.6172 18.2908C51.6305 18.2908 51.6437 18.2908 51.657 18.2908C51.6703 18.2908 51.6835 18.2908 51.6968 18.2908C51.7102 18.2908 51.7235 18.2908 51.7368 18.2908C51.7501 18.2908 51.7635 18.2908 51.7768 18.2908C51.7902 18.2908 51.8036 18.2908 51.817 18.2908C51.8304 18.2908 51.8438 18.2908 51.8572 18.2908C51.8707 18.2908 51.8841 18.2908 51.8976 18.2908C51.911 18.2908 51.9245 18.2908 51.938 18.2908C51.9515 18.2908 51.965 18.2908 51.9785 18.2908C51.9921 18.2908 52.0056 18.2908 52.0191 18.2908C52.0327 18.2908 52.0463 18.2908 52.0599 18.2908C52.0735 18.2908 52.0871 18.2908 52.1007 18.2908C52.1143 18.2908 52.1279 18.2908 52.1416 18.2908C52.1552 18.2908 52.1689 18.2908 52.1826 18.2908C52.1963 18.2908 52.2099 18.2908 52.2237 18.2908C52.2374 18.2908 52.2511 18.2908 52.2648 18.2908C52.2786 18.2908 52.2923 18.2908 52.3061 18.2908C52.3199 18.2908 52.3337 18.2908 52.3475 18.2908C52.3613 18.2908 52.3751 18.2908 52.3889 18.2908C52.4028 18.2908 52.4166 18.2908 52.4305 18.2908C52.4443 18.2908 52.4582 18.2908 52.4721 18.2908C52.486 18.2908 52.4999 18.2908 52.5138 18.2908C52.5278 18.2908 52.5417 18.2908 52.5556 18.2908C52.5696 18.2908 52.5836 18.2908 52.5975 18.2908C52.6115 18.2908 52.6255 18.2908 52.6395 18.2908C52.6535 18.2908 52.6676 18.2908 52.6816 18.2908C52.6957 18.2908 52.7097 18.2908 52.7238 18.2908C52.7379 18.2908 52.7519 18.2908 52.766 18.2908C52.7801 18.2908 52.7942 18.2908 52.8084 18.2908C52.8225 18.2908 52.8366 18.2908 52.8508 18.2908C52.865 18.2908 52.8791 18.2908 52.8933 18.2908C52.9075 18.2908 52.9217 18.2908 52.9359 18.2908C52.9501 18.2908 52.9643 18.2908 52.9786 18.2908C52.9928 18.2908 53.0071 18.2908 53.0214 18.2908C53.0356 18.2908 53.0499 18.2908 53.0642 18.2908C53.0785 18.2908 53.0928 18.2908 53.1071 18.2908C53.1215 18.2908 53.1358 18.2908 53.1502 18.2908C53.1645 18.2908 53.1789 18.2908 53.1933 18.2908C53.2076 18.2908 53.222 18.2908 53.2365 18.2908C53.2509 18.2908 53.2653 18.2908 53.2797 18.2908C53.2942 18.2908 53.3086 18.2908 53.3231 18.2908C53.3375 18.2908 53.352 18.2908 53.3665 18.2908C53.381 18.2908 53.3955 18.2908 53.41 18.2908C53.4245 18.2908 53.4391 18.2908 53.4536 18.2908C53.4681 18.2908 53.4827 18.2908 53.4973 18.2908C53.5118 18.2908 53.5264 18.2908 53.541 18.2908C53.5556 18.2908 53.5702 18.2908 53.5848 18.2908C53.5995 18.2908 53.6141 18.2908 53.6288 18.2908C53.6434 18.2908 53.6581 18.2908 53.6727 18.2908C53.6874 18.2908 53.7021 18.2908 53.7168 18.2908C53.7315 18.2908 53.7462 18.2908 53.7609 18.2908C53.7757 18.2908 53.7904 18.2908 53.8052 18.2908C53.8199 18.2908 53.8347 18.2908 53.8495 18.2908C53.8642 18.2908 53.879 18.2908 53.8938 18.2908C53.9086 18.2908 53.9235 18.2908 53.9383 18.2908C53.9531 18.2908 53.968 18.2908 53.9828 18.2908C53.9977 18.2908 54.0125 18.2908 54.0274 18.2908C54.0423 18.2908 54.0572 18.2908 54.0721 18.2908C54.087 18.2908 54.1019 18.2908 54.1168 18.2908C54.1318 18.2908 54.1467 18.2908 54.1617 18.2908C54.1766 18.2908 54.1916 18.2908 54.2066 18.2908C54.2215 18.2908 54.2365 18.2908 54.2515 18.2908C54.2665 18.2908 54.2815 18.2908 54.2966 18.2908C54.3116 18.2908 54.3266 18.2908 54.3417 18.2908C54.3567 18.2908 54.3718 18.2908 54.3869 18.2908C54.4019 18.2908 54.417 18.2908 54.4321 18.2908C54.4472 18.2908 54.4623 18.2908 54.4774 18.2908C54.4926 18.2908 54.5077 18.2908 54.5228 18.2908C54.538 18.2908 54.5531 18.2908 54.5683 18.2908C54.5835 18.2908 54.5987 18.2908 54.6138 18.2908C54.629 18.2908 54.6442 18.2908 54.6595 18.2908C54.6747 18.2908 54.6899 18.2908 54.7051 18.2908C54.7204 18.2908 54.7356 18.2908 54.7509 18.2908C54.7661 18.2908 54.7814 18.2908 54.7967 18.2908C54.812 18.2908 54.8273 18.2908 54.8426 18.2908C54.8579 18.2908 54.8732 18.2908 54.8885 18.2908C54.9038 18.2908 54.9192 18.2908 54.9345 18.2908C54.9499 18.2908 54.9652 18.2908 54.9806 18.2908C54.996 18.2908 55.0114 18.2908 55.0268 18.2908C55.0422 18.2908 55.0576 18.2908 55.073 18.2908C55.0884 18.2908 55.1038 18.2908 55.1192 18.2908C55.1347 18.2908 55.1501 18.2908 55.1656 18.2908C55.181 18.2908 55.1965 18.2908 55.212 18.2908C55.2275 18.2908 55.243 18.2908 55.2585 18.2908C55.274 18.2908 55.2895 18.2908 55.305 18.2908C55.3205 18.2908 55.3361 18.2908 55.3516 18.2908C55.3671 18.2908 55.3827 18.2908 55.3983 18.2908C55.4138 18.2908 55.4294 18.2908 55.445 18.2908C55.4606 18.2908 55.4762 18.2908 55.4918 18.2908C55.5074 18.2908 55.523 18.2908 55.5386 18.2908C55.5542 18.2908 55.5699 18.2908 55.5855 18.2908C55.6012 18.2908 55.6168 18.2908 55.6325 18.2908C55.6481 18.2908 55.6638 18.2908 55.6795 18.2908C55.6952 18.2908 55.7109 18.2908 55.7266 18.2908C55.7423 18.2908 55.758 18.2908 55.7737 18.2908C55.7895 18.2908 55.8052 18.2908 55.8209 18.2908C55.8367 18.2908 55.8524 18.2908 55.8682 18.2908C55.884 18.2908 55.8997 18.2908 55.9155 18.2908C55.9313 18.2908 55.9471 18.2908 55.9629 18.2908C55.9787 18.2908 55.9945 18.2908 56.0103 18.2908C56.0262 18.2908 56.042 18.2908 56.0578 18.2908C56.0737 18.2908 56.0895 18.2908 56.1054 18.2908C56.1212 18.2908 56.1371 18.2908 56.153 18.2908C56.1689 18.2908 56.1848 18.2908 56.2006 18.2908C56.2165 18.2908 56.2325 18.2908 56.2484 18.2908C56.2643 18.2908 56.2802 18.2908 56.2961 18.2908C56.3121 18.2908 56.328 18.2908 56.344 18.2908C56.3599 18.2908 56.3759 18.2908 56.3918 18.2908C56.4078 18.2908 56.4238 18.2908 56.4398 18.2908C56.4558 18.2908 56.4718 18.2908 56.4878 18.2908C56.5038 18.2908 56.5198 18.2908 56.5358 18.2908C56.5518 18.2908 56.5678 18.2908 56.5839 18.2908C56.5999 18.2908 56.616 18.2908 56.632 18.2908C56.6481 18.2908 56.6642 18.2908 56.6802 18.2908C56.6963 18.2908 56.7124 18.2908 56.7285 18.2908C56.7446 18.2908 56.7607 18.2908 56.7768 18.2908C56.7929 18.2908 56.809 18.2908 56.8251 18.2908C56.8412 18.2908 56.8574 18.2908 56.8735 18.2908C56.8896 18.2908 56.9058 18.2908 56.922 18.2908C56.9381 18.2908 56.9543 18.2908 56.9704 18.2908C56.9866 18.2908 57.0028 18.2908 57.019 18.2908C57.0352 18.2908 57.0514 18.2908 57.0676 18.2908C57.0838 18.2908 57.1 18.2908 57.1162 18.2908C57.1324 18.2908 57.1487 18.2908 57.1649 18.2908C57.1811 18.2908 57.1974 18.2908 57.2136 18.2908C57.2299 18.2908 57.2461 18.2908 57.2624 18.2908C57.2787 18.2908 57.295 18.2908 57.3112 18.2908C57.3275 18.2908 57.3438 18.2908 57.3601 18.2908C57.3764 18.2908 57.3927 18.2908 57.409 18.2908C57.4253 18.2908 57.4417 18.2908 57.458 18.2908C57.4743 18.2908 57.4907 18.2908 57.507 18.2908C57.5233 18.2908 57.5397 18.2908 57.556 18.2908C57.5724 18.2908 57.5888 18.2908 57.6051 18.2908C57.6215 18.2908 57.6379 18.2908 57.6543 18.2908C57.6707 18.2908 57.687 18.2908 57.7034 18.2908C57.7198 18.2908 57.7363 18.2908 57.7527 18.2908C57.7691 18.2908 57.7855 18.2908 57.8019 18.2908C57.8184 18.2908 57.8348 18.2908 57.8512 18.2908C57.8677 18.2908 57.8841 18.2908 57.9006 18.2908C57.917 18.2908 57.9335 18.2908 57.95 18.2908C57.9664 18.2908 57.9829 18.2908 57.9994 18.2908C58.0159 18.2908 58.0324 18.2908 58.0489 18.2908C58.0654 18.2908 58.0819 18.2908 58.0984 18.2908C58.1149 18.2908 58.1314 18.2908 58.1479 18.2908C58.1644 18.2908 58.181 18.2908 58.1975 18.2908C58.214 18.2908 58.2306 18.2908 58.2471 18.2908C58.2637 18.2908 58.2802 18.2908 58.2968 18.2908C58.3133 18.2908 58.3299 18.2908 58.3465 18.2908C58.363 18.2908 58.3796 18.2908 58.3962 18.2908C58.4128 18.2908 58.4294 18.2908 58.446 18.2908C58.4626 18.2908 58.4792 18.2908 58.4958 18.2908C58.5124 18.2908 58.529 18.2908 58.5456 18.2908C58.5622 18.2908 58.5789 18.2908 58.5955 18.2908C58.6121 18.2908 58.6288 18.2908 58.6454 18.2908C58.6621 18.2908 58.6787 18.2908 58.6954 18.2908C58.712 18.2908 58.7287 18.2908 58.7453 18.2908C58.762 18.2908 58.7787 18.2908 58.7953 18.2908C58.812 18.2908 58.8287 18.2908 58.8454 18.2908C58.8621 18.2908 58.8788 18.2908 58.8955 18.2908C58.9122 18.2908 58.9289 18.2908 58.9456 18.2908C58.9623 18.2908 58.979 18.2908 58.9957 18.2908C59.0125 18.2908 59.0292 18.2908 59.0459 18.2908C59.0626 18.2908 59.0794 18.2908 59.0961 18.2908C59.1129 18.2908 59.1296 18.2908 59.1464 18.2908C59.1631 18.2908 59.1799 18.2908 59.1966 18.2908C59.2134 18.2908 59.2301 18.2908 59.2469 18.2908C59.2637 18.2908 59.2805 18.2908 59.2972 18.2908C59.314 18.2908 59.3308 18.2908 59.3476 18.2908C59.3644 18.2908 59.3812 18.2908 59.398 18.2908C59.4148 18.2908 59.4316 18.2908 59.4484 18.2908C59.4652 18.2908 59.482 18.2908 59.4988 18.2908C59.5157 18.2908 59.5325 18.2908 59.5493 18.2908C59.5661 18.2908 59.583 18.2908 59.5998 18.2908C59.6166 18.2908 59.6335 18.2908 59.6503 18.2908C59.6672 18.2908 59.684 18.2908 59.7009 18.2908C59.7177 18.2908 59.7346 18.2908 59.7514 18.2908C59.7683 18.2908 59.7852 18.2908 59.802 18.2908C59.8189 18.2908 59.8358 18.2908 59.8527 18.2908C59.8695 18.2908 59.8864 18.2908 59.9033 18.2908C59.9202 18.2908 59.9371 18.2908 59.954 18.2908C59.9709 18.2908 59.9878 18.2908 60.0047 18.2908C60.0216 18.2908 60.0385 18.2908 60.0554 18.2908C60.0723 18.2908 60.0892 18.2908 60.1061 18.2908C60.1231 18.2908 60.14 18.2908 60.1569 18.2908C60.1738 18.2908 60.1908 18.2908 60.2077 18.2908C60.2246 18.2908 60.2416 18.2908 60.2585 18.2908C60.2754 18.2908 60.2924 18.2908 60.3093 18.2908C60.3263 18.2908 60.3432 18.2908 60.3602 18.2908C60.3771 18.2908 60.3941 18.2908 60.411 18.2908C60.428 18.2908 60.445 18.2908 60.4619 18.2908C60.4789 18.2908 60.4959 18.2908 60.5128 18.2908C60.5298 18.2908 60.5468 18.2908 60.5638 18.2908C60.5807 18.2908 60.5977 18.2908 60.6147 18.2908C60.6317 18.2908 60.6487 18.2908 60.6657 18.2908C60.6827 18.2908 60.6997 18.2908 60.7167 18.2908C60.7337 18.2908 60.7507 18.2908 60.7677 18.2908C60.7847 18.2908 60.8017 18.2908 60.8187 18.2908C60.8357 18.2908 60.8527 18.2908 60.8697 18.2908C60.8867 18.2908 60.9037 18.2908 60.9208 18.2908C60.9378 18.2908 60.9548 18.2908 60.9718 18.2908C60.9889 18.2908 61.0059 18.2908 61.0229 18.2908C61.0399 18.2908 61.057 18.2908 61.074 18.2908C61.091 18.2908 61.1081 18.2908 61.1251 18.2908C61.1422 18.2908 61.1592 18.2908 61.1762 18.2908C61.1933 18.2908 61.2103 18.2908 61.2274 18.2908C61.2444 18.2908 61.2615 18.2908 61.2785 18.2908C61.2956 18.2908 61.3126 18.2908 61.3297 18.2908C61.3468 18.2908 61.3638 18.2908 61.3809 18.2908C61.3979 18.2908 61.415 18.2908 61.4321 18.2908C61.4491 18.2908 61.4662 18.2908 61.4833 18.2908C61.5003 18.2908 61.5174 18.2908 61.5345 18.2908C61.5516 18.2908 61.5686 18.2908 61.5857 18.2908C61.6028 18.2908 61.6199 18.2908 61.6369 18.2908C61.654 18.2908 61.6711 18.2908 61.6882 18.2908C61.7053 18.2908 61.7223 18.2908 61.7394 18.2908C61.7565 18.2908 61.7736 18.2908 61.7907 18.2908C61.8078 18.2908 61.8249 18.2908 61.842 18.2908C61.8591 18.2908 61.8761 18.2908 61.8932 18.2908C61.9103 18.2908 61.9274 18.2908 61.9445 18.2908C61.9616 18.2908 61.9787 18.2908 61.9958 18.2908C62.0129 18.2908 62.03 18.2908 62.0471 18.2908C62.0642 18.2908 62.0813 18.2908 62.0984 18.2908C62.1155 18.2908 62.1326 18.2908 62.1497 18.2908C62.1668 18.2908 62.184 18.2908 62.2011 18.2908C62.2182 18.2908 62.2353 18.2908 62.2524 18.2908C62.2695 18.2908 62.2866 18.2908 62.3037 18.2908C62.3208 18.2908 62.3379 18.2908 62.3551 18.2908C62.3722 18.2908 62.3893 18.2908 62.4064 18.2908C62.4235 18.2908 62.4406 18.2908 62.4577 18.2908C62.4748 18.2908 62.492 18.2908 62.5091 18.2908C62.5262 18.2908 62.5433 18.2908 62.5604 18.2908C62.5775 18.2908 62.5947 18.2908 62.6118 18.2908C62.6289 18.2908 62.646 18.2908 62.6631 18.2908C62.6802 18.2908 62.6974 18.2908 62.7145 18.2908C62.7316 18.2908 62.7487 18.2908 62.7658 18.2908C62.783 18.2908 62.8001 18.2908 62.8172 18.2908C62.8343 18.2908 62.8514 18.2908 62.8686 18.2908C62.8857 18.2908 62.9028 18.2908 62.9199 18.2908C62.937 18.2908 62.9542 18.2908 62.9713 18.2908C62.9884 18.2908 63.0055 18.2908 63.0226 18.2908C63.0397 18.2908 63.0569 18.2908 63.074 18.2908C63.0911 18.2908 63.1082 18.2908 63.1253 18.2908C63.1424 18.2908 63.1596 18.2908 63.1767 18.2908C63.1938 18.2908 63.2109 18.2908 63.228 18.2908C63.2451 18.2908 63.2623 18.2908 63.2794 18.2908C63.2965 18.2908 63.3136 18.2908 63.3307 18.2908C63.3478 18.2908 63.3649 18.2908 63.3821 18.2908C63.3992 18.2908 63.4163 18.2908 63.4334 18.2908C63.4505 18.2908 63.4676 18.2908 63.4847 18.2908C63.5018 18.2908 63.5189 18.2908 63.536 18.2908C63.5532 18.2908 63.5703 18.2908 63.5874 18.2908C63.6045 18.2908 63.6216 18.2908 63.6387 18.2908C63.6558 18.2908 63.6729 18.2908 63.69 18.2908C63.7071 18.2908 63.7242 18.2908 63.7413 18.2908C63.7584 18.2908 63.7755 18.2908 63.7926 18.2908C63.8097 18.2908 63.8268 18.2908 63.8439 18.2908C63.861 18.2908 63.8781 18.2908 63.8951 18.2908C63.9122 18.2908 63.9293 18.2908 63.9464 18.2908C63.9635 18.2908 63.9806 18.2908 63.9977 18.2908C64.0148 18.2908 64.0318 18.2908 64.0489 18.2908C64.066 18.2908 64.0831 18.2908 64.1002 18.2908C64.1172 18.2908 64.1343 18.2908 64.1514 18.2908C64.1685 18.2908 64.1856 18.2908 64.2026 18.2908C64.2197 18.2908 64.2368 18.2908 64.2538 18.2908C64.2709 18.2908 64.288 18.2908 64.305 18.2908C64.3221 18.2908 64.3392 18.2908 64.3562 18.2908C64.3733 18.2908 64.3903 18.2908 64.4074 18.2908C64.4245 18.2908 64.4415 18.2908 64.4586 18.2908C64.4756 18.2908 64.4927 18.2908 64.5097 18.2908C64.5268 18.2908 64.5438 18.2908 64.5609 18.2908C64.5779 18.2908 64.5949 18.2908 64.612 18.2908C64.629 18.2908 64.646 18.2908 64.6631 18.2908C64.6801 18.2908 64.6972 18.2908 64.7142 18.2908C64.7312 18.2908 64.7482 18.2908 64.7653 18.2908C64.7823 18.2908 64.7993 18.2908 64.8163 18.2908C64.8333 18.2908 64.8504 18.2908 64.8674 18.2908C64.8844 18.2908 64.9014 18.2908 64.9184 18.2908C64.9354 18.2908 64.9524 18.2908 64.9694 18.2908C64.9864 18.2908 65.0034 18.2908 65.0204 18.2908C65.0374 18.2908 65.0544 18.2908 65.0714 18.2908C65.0884 18.2908 65.1054 18.2908 65.1224 18.2908C65.1394 18.2908 65.1563 18.2908 65.1733 18.2908C65.1903 18.2908 65.2073 18.2908 65.2242 18.2908C65.2412 18.2908 65.2582 18.2908 65.2752 18.2908C65.2921 18.2908 65.3091 18.2908 65.326 18.2908C65.343 18.2908 65.36 18.2908 65.3769 18.2908C65.3939 18.2908 65.4108 18.2908 65.4278 18.2908C65.4447 18.2908 65.4616 18.2908 65.4786 18.2908C65.4955 18.2908 65.5125 18.2908 65.5294 18.2908C65.5463 18.2908 65.5632 18.2908 65.5802 18.2908C65.5971 18.2908 65.614 18.2908 65.6309 18.2908C65.6479 18.2908 65.6648 18.2908 65.6817 18.2908C65.6986 18.2908 65.7155 18.2908 65.7324 18.2908C65.7493 18.2908 65.7662 18.2908 65.7831 18.2908C65.8 18.2908 65.8169 18.2908 65.8338 18.2908C65.8506 18.2908 65.8675 18.2908 65.8844 18.2908C65.9013 18.2908 65.9182 18.2908 65.935 18.2908C65.9519 18.2908 65.9688 18.2908 65.9856 18.2908C66.0025 18.2908 66.0193 18.2908 66.0362 18.2908C66.053 18.2908 66.0699 18.2908 66.0867 18.2908C66.1036 18.2908 66.1204 18.2908 66.1373 18.2908C66.1541 18.2908 66.1709 18.2908 66.1878 18.2908C66.2046 18.2908 66.2214 18.2908 66.2382 18.2908C66.255 18.2908 66.2719 18.2908 66.2887 18.2908C66.3055 18.2908 66.3223 18.2908 66.3391 18.2908C66.3559 18.2908 66.3727 18.2908 66.3895 18.2908C66.4062 18.2908 66.423 18.2908 66.4398 18.2908C66.4566 18.2908 66.4734 18.2908 66.4901 18.2908C66.5069 18.2908 66.5237 18.2908 66.5404 18.2908C66.5572 18.2908 66.5739 18.2908 66.5907 18.2908C66.6074 18.2908 66.6242 18.2908 66.6409 18.2908C66.6577 18.2908 66.6744 18.2908 66.6911 18.2908C66.7079 18.2908 66.7246 18.2908 66.7413 18.2908C66.758 18.2908 66.7747 18.2908 66.7914 18.2908C66.8082 18.2908 66.8249 18.2908 66.8416 18.2908C66.8583 18.2908 66.8749 18.2908 66.8916 18.2908C66.9083 18.2908 66.925 18.2908 66.9417 18.2908C66.9584 18.2908 66.975 18.2908 66.9917 18.2908C67.0084 18.2908 67.025 18.2908 67.0417 18.2908C67.0583 18.2908 67.075 18.2908 67.0916 18.2908C67.1083 18.2908 67.1249 18.2908 67.1415 18.2908C67.1582 18.2908 67.1748 18.2908 67.1914 18.2908C67.208 18.2908 67.2246 18.2908 67.2412 18.2908C67.2578 18.2908 67.2744 18.2908 67.291 18.2908C67.3076 18.2908 67.3242 18.2908 67.3408 18.2908C67.3574 18.2908 67.374 18.2908 67.3905 18.2908C67.4071 18.2908 67.4237 18.2908 67.4402 18.2908C67.4568 18.2908 67.4733 18.2908 67.4899 18.2908C67.5064 18.2908 67.523 18.2908 67.5395 18.2908C67.556 18.2908 67.5726 18.2908 67.5891 18.2908C67.6056 18.2908 67.6221 18.2908 67.6386 18.2908C67.6551 18.2908 67.6716 18.2908 67.6881 18.2908C67.7046 18.2908 67.7211 18.2908 67.7376 18.2908C67.7541 18.2908 67.7705 18.2908 67.787 18.2908C67.8035 18.2908 67.82 18.2908 67.8364 18.2908C67.8529 18.2908 67.8693 18.2908 67.8857 18.2908C67.9022 18.2908 67.9186 18.2908 67.935 18.2908C67.9515 18.2908 67.9679 18.2908 67.9843 18.2908C68.0007 18.2908 68.0171 18.2908 68.0335 18.2908C68.0499 18.2908 68.0663 18.2908 68.0827 18.2908C68.0991 18.2908 68.1155 18.2908 68.1318 18.2908C68.1482 18.2908 68.1646 18.2908 68.1809 18.2908C68.1973 18.2908 68.2136 18.2908 68.23 18.2908C68.2463 18.2908 68.2626 18.2908 68.279 18.2908C68.2953 18.2908 68.3116 18.2908 68.3279 18.2908C68.3442 18.2908 68.3605 18.2908 68.3768 18.2908C68.3931 18.2908 68.4094 18.2908 68.4257 18.2908C68.442 18.2908 68.4583 18.2908 68.4745 18.2908C68.4908 18.2908 68.5071 18.2908 68.5233 18.2908C68.5396 18.2908 68.5558 18.2908 68.572 18.2908C68.5883 18.2908 68.6045 18.2908 68.6207 18.2908C68.6369 18.2908 68.6532 18.2908 68.6694 18.2908C68.6856 18.2908 68.7018 18.2908 68.7179 18.2908C68.7341 18.2908 68.7503 18.2908 68.7665 18.2908C68.7827 18.2908 68.7988 18.2908 68.815 18.2908C68.8311 18.2908 68.8473 18.2908 68.8634 18.2908C68.8796 18.2908 68.8957 18.2908 68.9118 18.2908C68.9279 18.2908 68.944 18.2908 68.9602 18.2908V16.2908C68.944 16.2908 68.9279 16.2908 68.9118 16.2908C68.8957 16.2908 68.8796 16.2908 68.8634 16.2908C68.8473 16.2908 68.8311 16.2908 68.815 16.2908C68.7988 16.2908 68.7827 16.2908 68.7665 16.2908C68.7503 16.2908 68.7341 16.2908 68.7179 16.2908C68.7018 16.2908 68.6856 16.2908 68.6694 16.2908C68.6532 16.2908 68.6369 16.2908 68.6207 16.2908C68.6045 16.2908 68.5883 16.2908 68.572 16.2908C68.5558 16.2908 68.5396 16.2908 68.5233 16.2908C68.5071 16.2908 68.4908 16.2908 68.4745 16.2908C68.4583 16.2908 68.442 16.2908 68.4257 16.2908C68.4094 16.2908 68.3931 16.2908 68.3768 16.2908C68.3605 16.2908 68.3442 16.2908 68.3279 16.2908C68.3116 16.2908 68.2953 16.2908 68.279 16.2908C68.2626 16.2908 68.2463 16.2908 68.23 16.2908C68.2136 16.2908 68.1973 16.2908 68.1809 16.2908C68.1646 16.2908 68.1482 16.2908 68.1318 16.2908C68.1155 16.2908 68.0991 16.2908 68.0827 16.2908C68.0663 16.2908 68.0499 16.2908 68.0335 16.2908C68.0171 16.2908 68.0007 16.2908 67.9843 16.2908C67.9679 16.2908 67.9515 16.2908 67.935 16.2908C67.9186 16.2908 67.9022 16.2908 67.8857 16.2908C67.8693 16.2908 67.8529 16.2908 67.8364 16.2908C67.82 16.2908 67.8035 16.2908 67.787 16.2908C67.7705 16.2908 67.7541 16.2908 67.7376 16.2908C67.7211 16.2908 67.7046 16.2908 67.6881 16.2908C67.6716 16.2908 67.6551 16.2908 67.6386 16.2908C67.6221 16.2908 67.6056 16.2908 67.5891 16.2908C67.5726 16.2908 67.556 16.2908 67.5395 16.2908C67.523 16.2908 67.5064 16.2908 67.4899 16.2908C67.4733 16.2908 67.4568 16.2908 67.4402 16.2908C67.4237 16.2908 67.4071 16.2908 67.3905 16.2908C67.374 16.2908 67.3574 16.2908 67.3408 16.2908C67.3242 16.2908 67.3076 16.2908 67.291 16.2908C67.2744 16.2908 67.2578 16.2908 67.2412 16.2908C67.2246 16.2908 67.208 16.2908 67.1914 16.2908C67.1748 16.2908 67.1582 16.2908 67.1415 16.2908C67.1249 16.2908 67.1083 16.2908 67.0916 16.2908C67.075 16.2908 67.0583 16.2908 67.0417 16.2908C67.025 16.2908 67.0084 16.2908 66.9917 16.2908C66.975 16.2908 66.9584 16.2908 66.9417 16.2908C66.925 16.2908 66.9083 16.2908 66.8916 16.2908C66.8749 16.2908 66.8583 16.2908 66.8416 16.2908C66.8249 16.2908 66.8082 16.2908 66.7914 16.2908C66.7747 16.2908 66.758 16.2908 66.7413 16.2908C66.7246 16.2908 66.7079 16.2908 66.6911 16.2908C66.6744 16.2908 66.6577 16.2908 66.6409 16.2908C66.6242 16.2908 66.6074 16.2908 66.5907 16.2908C66.5739 16.2908 66.5572 16.2908 66.5404 16.2908C66.5237 16.2908 66.5069 16.2908 66.4901 16.2908C66.4734 16.2908 66.4566 16.2908 66.4398 16.2908C66.423 16.2908 66.4062 16.2908 66.3895 16.2908C66.3727 16.2908 66.3559 16.2908 66.3391 16.2908C66.3223 16.2908 66.3055 16.2908 66.2887 16.2908C66.2719 16.2908 66.255 16.2908 66.2382 16.2908C66.2214 16.2908 66.2046 16.2908 66.1878 16.2908C66.1709 16.2908 66.1541 16.2908 66.1373 16.2908C66.1204 16.2908 66.1036 16.2908 66.0867 16.2908C66.0699 16.2908 66.053 16.2908 66.0362 16.2908C66.0193 16.2908 66.0025 16.2908 65.9856 16.2908C65.9688 16.2908 65.9519 16.2908 65.935 16.2908C65.9182 16.2908 65.9013 16.2908 65.8844 16.2908C65.8675 16.2908 65.8506 16.2908 65.8338 16.2908C65.8169 16.2908 65.8 16.2908 65.7831 16.2908C65.7662 16.2908 65.7493 16.2908 65.7324 16.2908C65.7155 16.2908 65.6986 16.2908 65.6817 16.2908C65.6648 16.2908 65.6479 16.2908 65.6309 16.2908C65.614 16.2908 65.5971 16.2908 65.5802 16.2908C65.5632 16.2908 65.5463 16.2908 65.5294 16.2908C65.5125 16.2908 65.4955 16.2908 65.4786 16.2908C65.4616 16.2908 65.4447 16.2908 65.4278 16.2908C65.4108 16.2908 65.3939 16.2908 65.3769 16.2908C65.36 16.2908 65.343 16.2908 65.326 16.2908C65.3091 16.2908 65.2921 16.2908 65.2752 16.2908C65.2582 16.2908 65.2412 16.2908 65.2242 16.2908C65.2073 16.2908 65.1903 16.2908 65.1733 16.2908C65.1563 16.2908 65.1394 16.2908 65.1224 16.2908C65.1054 16.2908 65.0884 16.2908 65.0714 16.2908C65.0544 16.2908 65.0374 16.2908 65.0204 16.2908C65.0034 16.2908 64.9864 16.2908 64.9694 16.2908C64.9524 16.2908 64.9354 16.2908 64.9184 16.2908C64.9014 16.2908 64.8844 16.2908 64.8674 16.2908C64.8504 16.2908 64.8333 16.2908 64.8163 16.2908C64.7993 16.2908 64.7823 16.2908 64.7653 16.2908C64.7482 16.2908 64.7312 16.2908 64.7142 16.2908C64.6972 16.2908 64.6801 16.2908 64.6631 16.2908C64.646 16.2908 64.629 16.2908 64.612 16.2908C64.5949 16.2908 64.5779 16.2908 64.5609 16.2908C64.5438 16.2908 64.5268 16.2908 64.5097 16.2908C64.4927 16.2908 64.4756 16.2908 64.4586 16.2908C64.4415 16.2908 64.4245 16.2908 64.4074 16.2908C64.3903 16.2908 64.3733 16.2908 64.3562 16.2908C64.3392 16.2908 64.3221 16.2908 64.305 16.2908C64.288 16.2908 64.2709 16.2908 64.2538 16.2908C64.2368 16.2908 64.2197 16.2908 64.2026 16.2908C64.1856 16.2908 64.1685 16.2908 64.1514 16.2908C64.1343 16.2908 64.1172 16.2908 64.1002 16.2908C64.0831 16.2908 64.066 16.2908 64.0489 16.2908C64.0318 16.2908 64.0148 16.2908 63.9977 16.2908C63.9806 16.2908 63.9635 16.2908 63.9464 16.2908C63.9293 16.2908 63.9122 16.2908 63.8951 16.2908C63.8781 16.2908 63.861 16.2908 63.8439 16.2908C63.8268 16.2908 63.8097 16.2908 63.7926 16.2908C63.7755 16.2908 63.7584 16.2908 63.7413 16.2908C63.7242 16.2908 63.7071 16.2908 63.69 16.2908C63.6729 16.2908 63.6558 16.2908 63.6387 16.2908C63.6216 16.2908 63.6045 16.2908 63.5874 16.2908C63.5703 16.2908 63.5532 16.2908 63.536 16.2908C63.5189 16.2908 63.5018 16.2908 63.4847 16.2908C63.4676 16.2908 63.4505 16.2908 63.4334 16.2908C63.4163 16.2908 63.3992 16.2908 63.3821 16.2908C63.3649 16.2908 63.3478 16.2908 63.3307 16.2908C63.3136 16.2908 63.2965 16.2908 63.2794 16.2908C63.2623 16.2908 63.2451 16.2908 63.228 16.2908C63.2109 16.2908 63.1938 16.2908 63.1767 16.2908C63.1596 16.2908 63.1424 16.2908 63.1253 16.2908C63.1082 16.2908 63.0911 16.2908 63.074 16.2908C63.0569 16.2908 63.0397 16.2908 63.0226 16.2908C63.0055 16.2908 62.9884 16.2908 62.9713 16.2908C62.9542 16.2908 62.937 16.2908 62.9199 16.2908C62.9028 16.2908 62.8857 16.2908 62.8686 16.2908C62.8514 16.2908 62.8343 16.2908 62.8172 16.2908C62.8001 16.2908 62.783 16.2908 62.7658 16.2908C62.7487 16.2908 62.7316 16.2908 62.7145 16.2908C62.6974 16.2908 62.6802 16.2908 62.6631 16.2908C62.646 16.2908 62.6289 16.2908 62.6118 16.2908C62.5947 16.2908 62.5775 16.2908 62.5604 16.2908C62.5433 16.2908 62.5262 16.2908 62.5091 16.2908C62.492 16.2908 62.4748 16.2908 62.4577 16.2908C62.4406 16.2908 62.4235 16.2908 62.4064 16.2908C62.3893 16.2908 62.3722 16.2908 62.3551 16.2908C62.3379 16.2908 62.3208 16.2908 62.3037 16.2908C62.2866 16.2908 62.2695 16.2908 62.2524 16.2908C62.2353 16.2908 62.2182 16.2908 62.2011 16.2908C62.184 16.2908 62.1668 16.2908 62.1497 16.2908C62.1326 16.2908 62.1155 16.2908 62.0984 16.2908C62.0813 16.2908 62.0642 16.2908 62.0471 16.2908C62.03 16.2908 62.0129 16.2908 61.9958 16.2908C61.9787 16.2908 61.9616 16.2908 61.9445 16.2908C61.9274 16.2908 61.9103 16.2908 61.8932 16.2908C61.8761 16.2908 61.8591 16.2908 61.842 16.2908C61.8249 16.2908 61.8078 16.2908 61.7907 16.2908C61.7736 16.2908 61.7565 16.2908 61.7394 16.2908C61.7223 16.2908 61.7053 16.2908 61.6882 16.2908C61.6711 16.2908 61.654 16.2908 61.6369 16.2908C61.6199 16.2908 61.6028 16.2908 61.5857 16.2908C61.5686 16.2908 61.5516 16.2908 61.5345 16.2908C61.5174 16.2908 61.5003 16.2908 61.4833 16.2908C61.4662 16.2908 61.4491 16.2908 61.4321 16.2908C61.415 16.2908 61.3979 16.2908 61.3809 16.2908C61.3638 16.2908 61.3468 16.2908 61.3297 16.2908C61.3126 16.2908 61.2956 16.2908 61.2785 16.2908C61.2615 16.2908 61.2444 16.2908 61.2274 16.2908C61.2103 16.2908 61.1933 16.2908 61.1762 16.2908C61.1592 16.2908 61.1422 16.2908 61.1251 16.2908C61.1081 16.2908 61.091 16.2908 61.074 16.2908C61.057 16.2908 61.0399 16.2908 61.0229 16.2908C61.0059 16.2908 60.9889 16.2908 60.9718 16.2908C60.9548 16.2908 60.9378 16.2908 60.9208 16.2908C60.9037 16.2908 60.8867 16.2908 60.8697 16.2908C60.8527 16.2908 60.8357 16.2908 60.8187 16.2908C60.8017 16.2908 60.7847 16.2908 60.7677 16.2908C60.7507 16.2908 60.7337 16.2908 60.7167 16.2908C60.6997 16.2908 60.6827 16.2908 60.6657 16.2908C60.6487 16.2908 60.6317 16.2908 60.6147 16.2908C60.5977 16.2908 60.5807 16.2908 60.5638 16.2908C60.5468 16.2908 60.5298 16.2908 60.5128 16.2908C60.4959 16.2908 60.4789 16.2908 60.4619 16.2908C60.445 16.2908 60.428 16.2908 60.411 16.2908C60.3941 16.2908 60.3771 16.2908 60.3602 16.2908C60.3432 16.2908 60.3263 16.2908 60.3093 16.2908C60.2924 16.2908 60.2754 16.2908 60.2585 16.2908C60.2416 16.2908 60.2246 16.2908 60.2077 16.2908C60.1908 16.2908 60.1738 16.2908 60.1569 16.2908C60.14 16.2908 60.1231 16.2908 60.1061 16.2908C60.0892 16.2908 60.0723 16.2908 60.0554 16.2908C60.0385 16.2908 60.0216 16.2908 60.0047 16.2908C59.9878 16.2908 59.9709 16.2908 59.954 16.2908C59.9371 16.2908 59.9202 16.2908 59.9033 16.2908C59.8864 16.2908 59.8695 16.2908 59.8527 16.2908C59.8358 16.2908 59.8189 16.2908 59.802 16.2908C59.7852 16.2908 59.7683 16.2908 59.7514 16.2908C59.7346 16.2908 59.7177 16.2908 59.7009 16.2908C59.684 16.2908 59.6672 16.2908 59.6503 16.2908C59.6335 16.2908 59.6166 16.2908 59.5998 16.2908C59.583 16.2908 59.5661 16.2908 59.5493 16.2908C59.5325 16.2908 59.5157 16.2908 59.4988 16.2908C59.482 16.2908 59.4652 16.2908 59.4484 16.2908C59.4316 16.2908 59.4148 16.2908 59.398 16.2908C59.3812 16.2908 59.3644 16.2908 59.3476 16.2908C59.3308 16.2908 59.314 16.2908 59.2972 16.2908C59.2805 16.2908 59.2637 16.2908 59.2469 16.2908C59.2301 16.2908 59.2134 16.2908 59.1966 16.2908C59.1799 16.2908 59.1631 16.2908 59.1464 16.2908C59.1296 16.2908 59.1129 16.2908 59.0961 16.2908C59.0794 16.2908 59.0626 16.2908 59.0459 16.2908C59.0292 16.2908 59.0125 16.2908 58.9957 16.2908C58.979 16.2908 58.9623 16.2908 58.9456 16.2908C58.9289 16.2908 58.9122 16.2908 58.8955 16.2908C58.8788 16.2908 58.8621 16.2908 58.8454 16.2908C58.8287 16.2908 58.812 16.2908 58.7953 16.2908C58.7787 16.2908 58.762 16.2908 58.7453 16.2908C58.7287 16.2908 58.712 16.2908 58.6954 16.2908C58.6787 16.2908 58.6621 16.2908 58.6454 16.2908C58.6288 16.2908 58.6121 16.2908 58.5955 16.2908C58.5789 16.2908 58.5622 16.2908 58.5456 16.2908C58.529 16.2908 58.5124 16.2908 58.4958 16.2908C58.4792 16.2908 58.4626 16.2908 58.446 16.2908C58.4294 16.2908 58.4128 16.2908 58.3962 16.2908C58.3796 16.2908 58.363 16.2908 58.3465 16.2908C58.3299 16.2908 58.3133 16.2908 58.2968 16.2908C58.2802 16.2908 58.2637 16.2908 58.2471 16.2908C58.2306 16.2908 58.214 16.2908 58.1975 16.2908C58.181 16.2908 58.1644 16.2908 58.1479 16.2908C58.1314 16.2908 58.1149 16.2908 58.0984 16.2908C58.0819 16.2908 58.0654 16.2908 58.0489 16.2908C58.0324 16.2908 58.0159 16.2908 57.9994 16.2908C57.9829 16.2908 57.9664 16.2908 57.95 16.2908C57.9335 16.2908 57.917 16.2908 57.9006 16.2908C57.8841 16.2908 57.8677 16.2908 57.8512 16.2908C57.8348 16.2908 57.8184 16.2908 57.8019 16.2908C57.7855 16.2908 57.7691 16.2908 57.7527 16.2908C57.7363 16.2908 57.7198 16.2908 57.7034 16.2908C57.687 16.2908 57.6707 16.2908 57.6543 16.2908C57.6379 16.2908 57.6215 16.2908 57.6051 16.2908C57.5888 16.2908 57.5724 16.2908 57.556 16.2908C57.5397 16.2908 57.5233 16.2908 57.507 16.2908C57.4907 16.2908 57.4743 16.2908 57.458 16.2908C57.4417 16.2908 57.4253 16.2908 57.409 16.2908C57.3927 16.2908 57.3764 16.2908 57.3601 16.2908C57.3438 16.2908 57.3275 16.2908 57.3112 16.2908C57.295 16.2908 57.2787 16.2908 57.2624 16.2908C57.2461 16.2908 57.2299 16.2908 57.2136 16.2908C57.1974 16.2908 57.1811 16.2908 57.1649 16.2908C57.1487 16.2908 57.1324 16.2908 57.1162 16.2908C57.1 16.2908 57.0838 16.2908 57.0676 16.2908C57.0514 16.2908 57.0352 16.2908 57.019 16.2908C57.0028 16.2908 56.9866 16.2908 56.9704 16.2908C56.9543 16.2908 56.9381 16.2908 56.922 16.2908C56.9058 16.2908 56.8896 16.2908 56.8735 16.2908C56.8574 16.2908 56.8412 16.2908 56.8251 16.2908C56.809 16.2908 56.7929 16.2908 56.7768 16.2908C56.7607 16.2908 56.7446 16.2908 56.7285 16.2908C56.7124 16.2908 56.6963 16.2908 56.6802 16.2908C56.6642 16.2908 56.6481 16.2908 56.632 16.2908C56.616 16.2908 56.5999 16.2908 56.5839 16.2908C56.5678 16.2908 56.5518 16.2908 56.5358 16.2908C56.5198 16.2908 56.5038 16.2908 56.4878 16.2908C56.4718 16.2908 56.4558 16.2908 56.4398 16.2908C56.4238 16.2908 56.4078 16.2908 56.3918 16.2908C56.3759 16.2908 56.3599 16.2908 56.344 16.2908C56.328 16.2908 56.3121 16.2908 56.2961 16.2908C56.2802 16.2908 56.2643 16.2908 56.2484 16.2908C56.2325 16.2908 56.2165 16.2908 56.2006 16.2908C56.1848 16.2908 56.1689 16.2908 56.153 16.2908C56.1371 16.2908 56.1212 16.2908 56.1054 16.2908C56.0895 16.2908 56.0737 16.2908 56.0578 16.2908C56.042 16.2908 56.0262 16.2908 56.0103 16.2908C55.9945 16.2908 55.9787 16.2908 55.9629 16.2908C55.9471 16.2908 55.9313 16.2908 55.9155 16.2908C55.8997 16.2908 55.884 16.2908 55.8682 16.2908C55.8524 16.2908 55.8367 16.2908 55.8209 16.2908C55.8052 16.2908 55.7895 16.2908 55.7737 16.2908C55.758 16.2908 55.7423 16.2908 55.7266 16.2908C55.7109 16.2908 55.6952 16.2908 55.6795 16.2908C55.6638 16.2908 55.6481 16.2908 55.6325 16.2908C55.6168 16.2908 55.6012 16.2908 55.5855 16.2908C55.5699 16.2908 55.5542 16.2908 55.5386 16.2908C55.523 16.2908 55.5074 16.2908 55.4918 16.2908C55.4762 16.2908 55.4606 16.2908 55.445 16.2908C55.4294 16.2908 55.4138 16.2908 55.3983 16.2908C55.3827 16.2908 55.3671 16.2908 55.3516 16.2908C55.3361 16.2908 55.3205 16.2908 55.305 16.2908C55.2895 16.2908 55.274 16.2908 55.2585 16.2908C55.243 16.2908 55.2275 16.2908 55.212 16.2908C55.1965 16.2908 55.181 16.2908 55.1656 16.2908C55.1501 16.2908 55.1347 16.2908 55.1192 16.2908C55.1038 16.2908 55.0884 16.2908 55.073 16.2908C55.0576 16.2908 55.0422 16.2908 55.0268 16.2908C55.0114 16.2908 54.996 16.2908 54.9806 16.2908C54.9652 16.2908 54.9499 16.2908 54.9345 16.2908C54.9192 16.2908 54.9038 16.2908 54.8885 16.2908C54.8732 16.2908 54.8579 16.2908 54.8426 16.2908C54.8273 16.2908 54.812 16.2908 54.7967 16.2908C54.7814 16.2908 54.7661 16.2908 54.7509 16.2908C54.7356 16.2908 54.7204 16.2908 54.7051 16.2908C54.6899 16.2908 54.6747 16.2908 54.6595 16.2908C54.6442 16.2908 54.629 16.2908 54.6138 16.2908C54.5987 16.2908 54.5835 16.2908 54.5683 16.2908C54.5531 16.2908 54.538 16.2908 54.5228 16.2908C54.5077 16.2908 54.4926 16.2908 54.4774 16.2908C54.4623 16.2908 54.4472 16.2908 54.4321 16.2908C54.417 16.2908 54.4019 16.2908 54.3869 16.2908C54.3718 16.2908 54.3567 16.2908 54.3417 16.2908C54.3266 16.2908 54.3116 16.2908 54.2966 16.2908C54.2815 16.2908 54.2665 16.2908 54.2515 16.2908C54.2365 16.2908 54.2215 16.2908 54.2066 16.2908C54.1916 16.2908 54.1766 16.2908 54.1617 16.2908C54.1467 16.2908 54.1318 16.2908 54.1168 16.2908C54.1019 16.2908 54.087 16.2908 54.0721 16.2908C54.0572 16.2908 54.0423 16.2908 54.0274 16.2908C54.0125 16.2908 53.9977 16.2908 53.9828 16.2908C53.968 16.2908 53.9531 16.2908 53.9383 16.2908C53.9235 16.2908 53.9086 16.2908 53.8938 16.2908C53.879 16.2908 53.8642 16.2908 53.8495 16.2908C53.8347 16.2908 53.8199 16.2908 53.8052 16.2908C53.7904 16.2908 53.7757 16.2908 53.7609 16.2908C53.7462 16.2908 53.7315 16.2908 53.7168 16.2908C53.7021 16.2908 53.6874 16.2908 53.6727 16.2908C53.6581 16.2908 53.6434 16.2908 53.6288 16.2908C53.6141 16.2908 53.5995 16.2908 53.5848 16.2908C53.5702 16.2908 53.5556 16.2908 53.541 16.2908C53.5264 16.2908 53.5118 16.2908 53.4973 16.2908C53.4827 16.2908 53.4681 16.2908 53.4536 16.2908C53.4391 16.2908 53.4245 16.2908 53.41 16.2908C53.3955 16.2908 53.381 16.2908 53.3665 16.2908C53.352 16.2908 53.3375 16.2908 53.3231 16.2908C53.3086 16.2908 53.2942 16.2908 53.2797 16.2908C53.2653 16.2908 53.2509 16.2908 53.2365 16.2908C53.222 16.2908 53.2076 16.2908 53.1933 16.2908C53.1789 16.2908 53.1645 16.2908 53.1502 16.2908C53.1358 16.2908 53.1215 16.2908 53.1071 16.2908C53.0928 16.2908 53.0785 16.2908 53.0642 16.2908C53.0499 16.2908 53.0356 16.2908 53.0214 16.2908C53.0071 16.2908 52.9928 16.2908 52.9786 16.2908C52.9643 16.2908 52.9501 16.2908 52.9359 16.2908C52.9217 16.2908 52.9075 16.2908 52.8933 16.2908C52.8791 16.2908 52.865 16.2908 52.8508 16.2908C52.8366 16.2908 52.8225 16.2908 52.8084 16.2908C52.7942 16.2908 52.7801 16.2908 52.766 16.2908C52.7519 16.2908 52.7379 16.2908 52.7238 16.2908C52.7097 16.2908 52.6957 16.2908 52.6816 16.2908C52.6676 16.2908 52.6535 16.2908 52.6395 16.2908C52.6255 16.2908 52.6115 16.2908 52.5975 16.2908C52.5836 16.2908 52.5696 16.2908 52.5556 16.2908C52.5417 16.2908 52.5278 16.2908 52.5138 16.2908C52.4999 16.2908 52.486 16.2908 52.4721 16.2908C52.4582 16.2908 52.4443 16.2908 52.4305 16.2908C52.4166 16.2908 52.4028 16.2908 52.3889 16.2908C52.3751 16.2908 52.3613 16.2908 52.3475 16.2908C52.3337 16.2908 52.3199 16.2908 52.3061 16.2908C52.2923 16.2908 52.2786 16.2908 52.2648 16.2908C52.2511 16.2908 52.2374 16.2908 52.2237 16.2908C52.2099 16.2908 52.1963 16.2908 52.1826 16.2908C52.1689 16.2908 52.1552 16.2908 52.1416 16.2908C52.1279 16.2908 52.1143 16.2908 52.1007 16.2908C52.0871 16.2908 52.0735 16.2908 52.0599 16.2908C52.0463 16.2908 52.0327 16.2908 52.0191 16.2908C52.0056 16.2908 51.9921 16.2908 51.9785 16.2908C51.965 16.2908 51.9515 16.2908 51.938 16.2908C51.9245 16.2908 51.911 16.2908 51.8976 16.2908C51.8841 16.2908 51.8707 16.2908 51.8572 16.2908C51.8438 16.2908 51.8304 16.2908 51.817 16.2908C51.8036 16.2908 51.7902 16.2908 51.7768 16.2908C51.7635 16.2908 51.7501 16.2908 51.7368 16.2908C51.7235 16.2908 51.7102 16.2908 51.6968 16.2908C51.6835 16.2908 51.6703 16.2908 51.657 16.2908C51.6437 16.2908 51.6305 16.2908 51.6172 16.2908C51.604 16.2908 51.5908 16.2908 51.5776 16.2908C51.5644 16.2908 51.5512 16.2908 51.538 16.2908C51.5249 16.2908 51.5117 16.2908 51.4986 16.2908C51.4854 16.2908 51.4723 16.2908 51.4592 16.2908C51.4461 16.2908 51.433 16.2908 51.42 16.2908C51.4069 16.2908 51.3938 16.2908 51.3808 16.2908C51.3678 16.2908 51.3547 16.2908 51.3417 16.2908C51.3287 16.2908 51.3157 16.2908 51.3028 16.2908C51.2898 16.2908 51.2769 16.2908 51.2639 16.2908C51.251 16.2908 51.2381 16.2908 51.2252 16.2908C51.2123 16.2908 51.1994 16.2908 51.1865 16.2908C51.1737 16.2908 51.1608 16.2908 51.148 16.2908C51.1351 16.2908 51.1223 16.2908 51.1095 16.2908C51.0967 16.2908 51.084 16.2908 51.0712 16.2908C51.0584 16.2908 51.0457 16.2908 51.033 16.2908C51.0202 16.2908 51.0075 16.2908 50.9948 16.2908C50.9821 16.2908 50.9695 16.2908 50.9568 16.2908C50.9441 16.2908 50.9315 16.2908 50.9189 16.2908C50.9063 16.2908 50.8936 16.2908 50.8811 16.2908C50.8685 16.2908 50.8559 16.2908 50.8433 16.2908C50.8308 16.2908 50.8183 16.2908 50.8057 16.2908C50.7932 16.2908 50.7807 16.2908 50.7683 16.2908C50.7558 16.2908 50.7433 16.2908 50.7309 16.2908C50.7184 16.2908 50.706 16.2908 50.6936 16.2908C50.6812 16.2908 50.6688 16.2908 50.6564 16.2908C50.644 16.2908 50.6317 16.2908 50.6193 16.2908C50.607 16.2908 50.5947 16.2908 50.5824 16.2908C50.5701 16.2908 50.5578 16.2908 50.5455 16.2908C50.5333 16.2908 50.521 16.2908 50.5088 16.2908C50.4966 16.2908 50.4844 16.2908 50.4722 16.2908C50.46 16.2908 50.4478 16.2908 50.4357 16.2908C50.4235 16.2908 50.4114 16.2908 50.3993 16.2908C50.3872 16.2908 50.3751 16.2908 50.363 16.2908C50.3509 16.2908 50.3388 16.2908 50.3268 16.2908C50.3148 16.2908 50.3027 16.2908 50.2907 16.2908C50.2787 16.2908 50.2668 16.2908 50.2548 16.2908C50.2428 16.2908 50.2309 16.2908 50.2189 16.2908C50.207 16.2908 50.1951 16.2908 50.1832 16.2908C50.1713 16.2908 50.1595 16.2908 50.1476 16.2908C50.1358 16.2908 50.1239 16.2908 50.1121 16.2908C50.1003 16.2908 50.0885 16.2908 50.0767 16.2908C50.065 16.2908 50.0532 16.2908 50.0415 16.2908C50.0297 16.2908 50.018 16.2908 50.0063 16.2908C49.9946 16.2908 49.9829 16.2908 49.9713 16.2908C49.9596 16.2908 49.948 16.2908 49.9364 16.2908C49.9247 16.2908 49.9131 16.2908 49.9016 16.2908C49.89 16.2908 49.8784 16.2908 49.8669 16.2908C49.8553 16.2908 49.8438 16.2908 49.8323 16.2908C49.8208 16.2908 49.8093 16.2908 49.7979 16.2908C49.7864 16.2908 49.7749 16.2908 49.7635 16.2908C49.7521 16.2908 49.7407 16.2908 49.7293 16.2908C49.7179 16.2908 49.7066 16.2908 49.6952 16.2908C49.6839 16.2908 49.6726 16.2908 49.6613 16.2908C49.6499 16.2908 49.6387 16.2908 49.6274 16.2908C49.6161 16.2908 49.6049 16.2908 49.5937 16.2908C49.5824 16.2908 49.5712 16.2908 49.5601 16.2908C49.5489 16.2908 49.5377 16.2908 49.5266 16.2908C49.5154 16.2908 49.5043 16.2908 49.4932 16.2908C49.4821 16.2908 49.471 16.2908 49.46 16.2908C49.4489 16.2908 49.4379 16.2908 49.4268 16.2908C49.4158 16.2908 49.4048 16.2908 49.3939 16.2908C49.3829 16.2908 49.3719 16.2908 49.361 16.2908C49.35 16.2908 49.3391 16.2908 49.3282 16.2908C49.3173 16.2908 49.3065 16.2908 49.2956 16.2908C49.2847 16.2908 49.2739 16.2908 49.2631 16.2908C49.2523 16.2908 49.2415 16.2908 49.2307 16.2908C49.22 16.2908 49.2092 16.2908 49.1985 16.2908C49.1878 16.2908 49.177 16.2908 49.1664 16.2908C49.1557 16.2908 49.145 16.2908 49.1344 16.2908C49.1237 16.2908 49.1131 16.2908 49.1025 16.2908C49.0919 16.2908 49.0813 16.2908 49.0708 16.2908C49.0602 16.2908 49.0497 16.2908 49.0391 16.2908C49.0286 16.2908 49.0181 16.2908 49.0077 16.2908C48.9972 16.2908 48.9867 16.2908 48.9763 16.2908C48.9659 16.2908 48.9555 16.2908 48.9451 16.2908C48.9347 16.2908 48.9243 16.2908 48.914 16.2908C48.9036 16.2908 48.8933 16.2908 48.883 16.2908C48.8727 16.2908 48.8624 16.2908 48.8522 16.2908C48.8419 16.2908 48.8317 16.2908 48.8215 16.2908C48.8112 16.2908 48.801 16.2908 48.7909 16.2908C48.7807 16.2908 48.7706 16.2908 48.7604 16.2908C48.7503 16.2908 48.7402 16.2908 48.7301 16.2908C48.72 16.2908 48.71 16.2908 48.6999 16.2908C48.6899 16.2908 48.6799 16.2908 48.6699 16.2908C48.6599 16.2908 48.6499 16.2908 48.64 16.2908C48.63 16.2908 48.6201 16.2908 48.6102 16.2908C48.6003 16.2908 48.5904 16.2908 48.5805 16.2908C48.5707 16.2908 48.5609 16.2908 48.551 16.2908C48.5412 16.2908 48.5314 16.2908 48.5217 16.2908C48.5119 16.2908 48.5021 16.2908 48.4924 16.2908C48.4827 16.2908 48.473 16.2908 48.4633 16.2908C48.4536 16.2908 48.444 16.2908 48.4343 16.2908C48.4247 16.2908 48.4151 16.2908 48.4055 16.2908C48.3959 16.2908 48.3864 16.2908 48.3768 16.2908C48.3673 16.2908 48.3577 16.2908 48.3482 16.2908C48.3388 16.2908 48.3293 16.2908 48.3198 16.2908C48.3104 16.2908 48.3009 16.2908 48.2915 16.2908C48.2821 16.2908 48.2728 16.2908 48.2634 16.2908C48.254 16.2908 48.2447 16.2908 48.2354 16.2908C48.2261 16.2908 48.2168 16.2908 48.2075 16.2908C48.1983 16.2908 48.189 16.2908 48.1798 16.2908C48.1706 16.2908 48.1614 16.2908 48.1522 16.2908C48.143 16.2908 48.1339 16.2908 48.1248 16.2908C48.1156 16.2908 48.1065 16.2908 48.0975 16.2908C48.0884 16.2908 48.0793 16.2908 48.0703 16.2908C48.0613 16.2908 48.0523 16.2908 48.0433 16.2908C48.0343 16.2908 48.0253 16.2908 48.0164 16.2908C48.0075 16.2908 47.9985 16.2908 47.9897 16.2908C47.9808 16.2908 47.9719 16.2908 47.9631 16.2908C47.9542 16.2908 47.9454 16.2908 47.9366 16.2908C47.9278 16.2908 47.9191 16.2908 47.9103 16.2908C47.9016 16.2908 47.8928 16.2908 47.8841 16.2908C47.8755 16.2908 47.8668 16.2908 47.8581 16.2908C47.8495 16.2908 47.8409 16.2908 47.8323 16.2908C47.8237 16.2908 47.8151 16.2908 47.8065 16.2908C47.798 16.2908 47.7895 16.2908 47.781 16.2908C47.7725 16.2908 47.764 16.2908 47.7555 16.2908C47.7471 16.2908 47.7386 16.2908 47.7302 16.2908C47.7218 16.2908 47.7135 16.2908 47.7051 16.2908C47.6967 16.2908 47.6884 16.2908 47.6801 16.2908C47.6718 16.2908 47.6635 16.2908 47.6553 16.2908C47.647 16.2908 47.6388 16.2908 47.6306 16.2908C47.6224 16.2908 47.6142 16.2908 47.606 16.2908C47.5979 16.2908 47.5897 16.2908 47.5816 16.2908C47.5735 16.2908 47.5654 16.2908 47.5574 16.2908C47.5493 16.2908 47.5413 16.2908 47.5333 16.2908C47.5253 16.2908 47.5173 16.2908 47.5093 16.2908C47.5014 16.2908 47.4934 16.2908 47.4855 16.2908C47.4776 16.2908 47.4698 16.2908 47.4619 16.2908C47.454 16.2908 47.4462 16.2908 47.4384 16.2908C47.4306 16.2908 47.4228 16.2908 47.4151 16.2908C47.4073 16.2908 47.3996 16.2908 47.3919 16.2908C47.3842 16.2908 47.3765 16.2908 47.3688 16.2908C47.3612 16.2908 47.3536 16.2908 47.346 16.2908C47.3384 16.2908 47.3308 16.2908 47.3232 16.2908C47.3157 16.2908 47.3082 16.2908 47.3007 16.2908C47.2932 16.2908 47.2857 16.2908 47.2783 16.2908C47.2708 16.2908 47.2634 16.2908 47.256 16.2908C47.2486 16.2908 47.2412 16.2908 47.2339 16.2908C47.2265 16.2908 47.2192 16.2908 47.2119 16.2908C47.2046 16.2908 47.1974 16.2908 47.1901 16.2908C47.1829 16.2908 47.1757 16.2908 47.1685 16.2908C47.1613 16.2908 47.1542 16.2908 47.147 16.2908C47.1399 16.2908 47.1328 16.2908 47.1257 16.2908C47.1186 16.2908 47.1116 16.2908 47.1045 16.2908C47.0975 16.2908 47.0905 16.2908 47.0835 16.2908C47.0766 16.2908 47.0696 16.2908 47.0627 16.2908C47.0558 16.2908 47.0489 16.2908 47.042 16.2908C47.0351 16.2908 47.0283 16.2908 47.0215 16.2908C47.0147 16.2908 47.0079 16.2908 47.0011 16.2908C46.9944 16.2908 46.9876 16.2908 46.9809 16.2908C46.9742 16.2908 46.9675 16.2908 46.9609 16.2908C46.9542 16.2908 46.9476 16.2908 46.941 16.2908C46.9344 16.2908 46.9278 16.2908 46.9213 16.2908V18.2908ZM34.0628 41.5413H23.7588V43.5413H34.0628V41.5413Z" fill="#9FC4D2"/>
</g>
</svg>
